<svg viewBox="0 0 100 100" xmlns="http://www.w3.org/2000/svg" role="img" aria-label="odba Ghost mark">
  <rect x="4" y="4" width="92" height="92" rx="24" fill="#000000"/>
  <path d="M50 25 C61.5 25 68.5 33.5 68.5 46 L68.5 65.5 C68.5 69 64.5 69.8 62.7 67 L60 62.8 C58.6 60.6 55.4 60.6 54 62.8 L51.3 67 C49.9 69.2 46.1 69.2 44.7 67 L42 62.8 C40.6 60.6 37.4 60.6 36 62.8 L33.3 67 C31.5 69.8 31.5 69 31.5 65.5 L31.5 46 C31.5 33.5 38.5 25 50 25 Z" fill="#FF5A00"/>
  <circle cx="43.5" cy="45" r="4.2" fill="#000000"/>
  <circle cx="56.5" cy="45" r="4.2" fill="#000000"/>
</svg>
